name rise43.5482peak65.4966fall89.1036.mot
datacolumns 19
datarows 20
range 10.40328500000000 10.43496000000000
endheader
time	ground_force1_vx	ground_force1_vy	ground_force1_vz	ground_force1_px	ground_force1_py	ground_force1_pz	ground_force2_vx	ground_force2_vy	ground_force2_vz	ground_force2_px	ground_force2_py	ground_force2_pz	ground_torque1_x	ground_torque1_y	ground_torque1_z	ground_torque2_x	ground_torque2_y	ground_torque2_z	
10.40328500000000	-51.20087800000000	791.50483099999997	50.02512700000000	0.09099300000000	0.00000000000000	0.09816300000000	-14.32154200000000	46.16544500000000	14.32815100000000	0.38772700000000	0.00000000000000	-0.05156900000000	0.00000000000000	18.02840200000000	0.00000000000000	0.00000000000000	9.20128300000000	0.00000000000000	
10.40495600000000	-51.71179400000000	789.51729399999999	49.83797500000000	0.09028900000000	0.00000000000000	0.09807700000000	-15.45447400000000	50.92489600000000	15.57534100000000	0.38872800000000	0.00000000000000	-0.05183400000000	0.00000000000000	17.98337500000000	0.00000000000000	0.00000000000000	10.03439800000000	0.00000000000000	
10.40662100000000	-52.23526300000000	787.42463099999998	49.62853200000000	0.08957900000000	0.00000000000000	0.09798700000000	-16.40363600000000	55.36514300000000	16.66361500000000	0.38956800000000	0.00000000000000	-0.05212600000000	0.00000000000000	17.93853900000000	0.00000000000000	0.00000000000000	10.76821600000000	0.00000000000000	
10.40829200000000	-52.77163700000000	785.22670400000004	49.39667500000000	0.08886300000000	0.00000000000000	0.09789400000000	-17.15986800000000	59.46031100000000	17.58300600000000	0.39025800000000	0.00000000000000	-0.05244500000000	0.00000000000000	17.89399500000000	0.00000000000000	0.00000000000000	11.39543800000000	0.00000000000000	
10.40995900000000	-53.32121000000000	782.92339900000002	49.14232100000000	0.08814100000000	0.00000000000000	0.09779800000000	-17.72378200000000	63.21122200000000	18.33275700000000	0.39080700000000	0.00000000000000	-0.05278900000000	0.00000000000000	17.84984000000000	0.00000000000000	0.00000000000000	11.91479900000000	0.00000000000000	
10.41162700000000	-53.88421500000000	780.51462800000002	48.86542400000000	0.08741100000000	0.00000000000000	0.09769800000000	-18.10430200000000	66.64186300000000	18.92002900000000	0.39122600000000	0.00000000000000	-0.05315800000000	0.00000000000000	17.80616200000000	0.00000000000000	0.00000000000000	12.33025300000000	0.00000000000000	
10.41328900000000	-54.46082000000000	778.00031400000000	48.56598400000000	0.08667300000000	0.00000000000000	0.09759400000000	-18.31677700000000	69.79454800000001	19.35816200000000	0.39152300000000	0.00000000000000	-0.05355100000000	0.00000000000000	17.76304800000000	0.00000000000000	0.00000000000000	12.64987300000000	0.00000000000000	
10.41495200000000	-55.05112800000000	775.38039100000003	48.24403600000000	0.08592600000000	0.00000000000000	0.09748700000000	-18.38088900000000	72.72442400000000	19.66474900000000	0.39170600000000	0.00000000000000	-0.05396600000000	0.00000000000000	17.72057500000000	0.00000000000000	0.00000000000000	12.88460200000000	0.00000000000000	
10.41662200000000	-55.65516700000000	772.65479200000004	47.89965900000000	0.08516800000000	0.00000000000000	0.09737600000000	-18.31856200000000	75.49386900000000	19.85967900000000	0.39178200000000	0.00000000000000	-0.05440200000000	0.00000000000000	17.67881500000000	0.00000000000000	0.00000000000000	13.04698600000000	0.00000000000000	
10.41829200000000	-56.27289400000000	769.82344999999998	47.53297300000000	0.08440000000000	0.00000000000000	0.09726300000000	-18.15204800000000	78.16726400000000	19.96333600000000	0.39176000000000	0.00000000000000	-0.05485800000000	0.00000000000000	17.63783100000000	0.00000000000000	0.00000000000000	13.14999600000000	0.00000000000000	
10.41995900000000	-56.90418700000000	766.88628300000005	47.14413900000000	0.08362100000000	0.00000000000000	0.09714600000000	-17.90231800000000	80.80649600000000	19.99507200000000	0.39164600000000	0.00000000000000	-0.05533300000000	0.00000000000000	17.59768000000000	0.00000000000000	0.00000000000000	13.20602900000000	0.00000000000000	
10.42162700000000	-57.54884600000000	763.84319800000003	46.73335800000000	0.08283000000000	0.00000000000000	0.09702600000000	-17.58780700000000	83.46740900000000	19.97200600000000	0.39144600000000	0.00000000000000	-0.05582600000000	0.00000000000000	17.55841000000000	0.00000000000000	0.00000000000000	13.22612200000000	0.00000000000000	
10.42329100000000	-58.20658700000000	760.69407699999999	46.30087100000000	0.08202600000000	0.00000000000000	0.09690200000000	-17.22358500000000	86.19732100000000	19.90821000000000	0.39116600000000	0.00000000000000	-0.05633500000000	0.00000000000000	17.52006100000000	0.00000000000000	0.00000000000000	13.21941700000000	0.00000000000000	
10.42495400000000	-58.87704200000000	757.43877999999995	45.84696200000000	0.08120800000000	0.00000000000000	0.09677600000000	-16.82090800000000	89.03359399999999	19.81426600000000	0.39081200000000	0.00000000000000	-0.05686000000000	0.00000000000000	17.48266300000000	0.00000000000000	0.00000000000000	13.19286500000000	0.00000000000000	
10.42661900000000	-59.55975600000000	754.07713500000000	45.37195200000000	0.08037800000000	0.00000000000000	0.09664700000000	-16.38714100000000	92.00319700000000	19.69715000000000	0.39039100000000	0.00000000000000	-0.05739800000000	0.00000000000000	17.44623800000000	0.00000000000000	0.00000000000000	13.15115200000000	0.00000000000000	
10.42828900000000	-60.25418500000000	750.60893799999997	44.87620200000000	0.07953300000000	0.00000000000000	0.09651600000000	-15.92597200000000	95.12309200000000	19.56041900000000	0.38990700000000	0.00000000000000	-0.05795000000000	0.00000000000000	17.41079500000000	0.00000000000000	0.00000000000000	13.09681700000000	0.00000000000000	
10.42996000000000	-60.95969600000000	747.03394500000002	44.36011300000000	0.07867300000000	0.00000000000000	0.09638100000000	-15.43786700000000	98.40128100000000	19.40460700000000	0.38936600000000	0.00000000000000	-0.05851300000000	0.00000000000000	17.37633600000000	0.00000000000000	0.00000000000000	13.03050100000000	0.00000000000000	
10.43162300000000	-61.67556300000000	743.35187599999995	43.82412200000000	0.07779800000000	0.00000000000000	0.09624500000000	-14.92067000000000	101.83830100000000	19.22777800000000	0.38877200000000	0.00000000000000	-0.05908500000000	0.00000000000000	17.34285000000000	0.00000000000000	0.00000000000000	12.95130500000000	0.00000000000000	
10.43328800000000	-62.40096800000000	739.56240700000001	43.26870300000000	0.07690900000000	0.00000000000000	0.09610500000000	-14.37028800000000	105.42898400000000	19.02615500000000	0.38813100000000	0.00000000000000	-0.05966600000000	0.00000000000000	17.31031700000000	0.00000000000000	0.00000000000000	12.85719200000000	0.00000000000000	
10.43496000000000	-63.13500000000000	735.66516899999999	42.69436600000000	0.07600300000000	0.00000000000000	0.09596400000000	-13.78139700000000	109.16428300000000	18.79477700000000	0.38744800000000	0.00000000000000	-0.06025500000000	0.00000000000000	17.27870100000000	0.00000000000000	0.00000000000000	12.74540200000000	0.00000000000000	
